<svg width="52" height="52" viewBox="0 0 52 52" fill="none" xmlns="http://www.w3.org/2000/svg">
<rect width="52" height="52" rx="4" fill="#F3AA3C"/>
<g clip-path="url(#clip0_1_1111)">
<path d="M37.1859 28.5647C36.8422 24.0905 34.7591 21.2867 32.9214 18.8126C31.2197 16.522 29.75 14.544 29.75 11.6262C29.75 11.3918 29.6188 11.1776 29.4106 11.0702C29.2019 10.9621 28.951 10.9798 28.7612 11.1177C26.0012 13.0927 23.6984 16.4214 22.8939 19.5974C22.3355 21.8085 22.2616 24.2943 22.2512 25.936C19.7024 25.3916 19.125 21.5791 19.1189 21.5375C19.0902 21.3398 18.9694 21.1677 18.7936 21.0737C18.616 20.9809 18.4072 20.9742 18.2272 21.0633C18.0935 21.128 14.9465 22.727 14.7634 29.1115C14.7506 29.3239 14.75 29.5369 14.75 29.7499C14.75 35.9525 19.797 40.9991 26 40.9991C26.0086 40.9997 26.0177 41.001 26.025 40.9991C26.0275 40.9991 26.0299 40.9991 26.0329 40.9991C32.2207 40.9814 37.25 35.9415 37.25 29.7499C37.25 29.438 37.1859 28.5647 37.1859 28.5647ZM26 39.7492C23.9321 39.7492 22.25 37.9574 22.25 35.7548C22.25 35.6797 22.2494 35.604 22.2549 35.5113C22.2799 34.5824 22.4563 33.9483 22.6498 33.5265C23.0124 34.3053 23.6605 35.0212 24.7134 35.0212C25.0589 35.0212 25.3384 34.7416 25.3384 34.3962C25.3384 33.5064 25.3568 32.4798 25.5783 31.5534C25.7755 30.7319 26.2466 29.8579 26.8436 29.1573C27.1091 30.0667 27.6267 30.8027 28.1321 31.521C28.8553 32.5488 29.603 33.6114 29.7342 35.4234C29.7421 35.5308 29.7501 35.6388 29.7501 35.7548C29.75 37.9573 28.0679 39.7492 26 39.7492Z" fill="white"/>
</g>
<defs>
<clipPath id="clip0_1_1111">
<rect width="30" height="30" fill="white" transform="translate(11 11)"/>
</clipPath>
</defs>
</svg>
