<svg width="52" height="52" viewBox="0 0 52 52" fill="none" xmlns="http://www.w3.org/2000/svg">
<rect width="52" height="52" rx="4" fill="#F3AA3C"/>
<g clip-path="url(#clip0_1_1097)">
<path d="M16.8929 35.375V32.6504L11.7576 37.7857H14.4822C15.813 37.7843 16.8915 36.7058 16.8929 35.375Z" fill="white"/>
<path d="M32.8095 11H31.0555L18.6543 24.3929H20.4093L32.8095 11Z" fill="white"/>
<path d="M20.1072 35.3751V25.4644H17.9643V35.3751C17.9621 37.2973 16.4044 38.855 14.4822 38.8572H11V41.0001H27.0714V38.8572H23.5893C21.6671 38.855 20.1094 37.2973 20.1072 35.3751Z" fill="white"/>
<path d="M40.2424 24.3927H36.7142C36.6823 24.3894 36.6507 24.383 36.62 24.3737C34.8478 24.1862 33.5021 22.6926 33.4999 20.9106V11.8309L21.1785 25.1381V35.3749C21.1799 36.7057 22.2584 37.7842 23.5892 37.7856H27.3774L37.9332 26.702L40.2424 24.3927ZM23.7017 35.9962C23.6003 36.096 23.4636 36.1519 23.3214 36.1515C23.1789 36.1529 23.0418 36.0969 22.941 35.9961C22.8402 35.8953 22.7843 35.7583 22.7856 35.6158C22.7866 35.4753 22.8423 35.3409 22.941 35.241C23.1536 35.0372 23.489 35.0372 23.7016 35.241C23.8001 35.341 23.8558 35.4755 23.857 35.6158C23.8559 35.7578 23.8003 35.894 23.7017 35.9962ZM25.8519 33.7421L25.3162 34.3035C25.1119 34.5176 24.7727 34.5255 24.5586 34.3213C24.3445 34.117 24.3366 33.7778 24.5408 33.5637L25.0765 33.0024C25.2087 32.8639 25.4047 32.8064 25.5907 32.8516C25.7767 32.8968 25.9245 33.0378 25.9783 33.2215C26.0323 33.4052 25.984 33.6036 25.8519 33.7421ZM27.9947 31.4972L27.459 32.0586C27.2548 32.2727 26.9156 32.2806 26.7015 32.0764C26.4874 31.8721 26.4794 31.5329 26.6836 31.3188L27.2194 30.7575C27.4236 30.5434 27.7628 30.5354 27.9769 30.7397C28.191 30.944 28.199 31.2831 27.9947 31.4972ZM30.1376 29.2524L29.6018 29.8137C29.3976 30.0278 29.0584 30.0358 28.8443 29.8315C28.6302 29.6273 28.6222 29.2881 28.8265 29.074L29.3622 28.5126C29.5665 28.2985 29.9057 28.2906 30.1198 28.4948C30.3339 28.6991 30.3419 29.0383 30.1376 29.2524ZM32.2805 27.0075L31.7447 27.5688C31.6126 27.7073 31.4166 27.7648 31.2306 27.7196C31.0445 27.6744 30.8968 27.5334 30.8429 27.3497C30.7891 27.166 30.8373 26.9675 30.9694 26.829L31.5051 26.2677C31.7094 26.0536 32.0486 26.0456 32.2627 26.2499C32.4767 26.4542 32.4847 26.7934 32.2805 27.0075ZM33.8802 25.3302C33.7803 25.433 33.6432 25.4908 33.4999 25.4908C33.3566 25.4908 33.2195 25.4329 33.1196 25.3302C33.0189 25.2316 32.9627 25.0961 32.9642 24.9551C32.9651 24.813 33.0208 24.6768 33.1196 24.5748C33.3344 24.3765 33.6654 24.3765 33.8802 24.5748C33.9789 24.677 34.0345 24.8131 34.0356 24.9551C34.0369 25.0961 33.9808 25.2315 33.8802 25.3302Z" fill="white"/>
<path d="M38.7002 27.4502L28.1428 38.5357V40.1964L37.933 29.9166L41 26.8497V25.1503L38.7002 27.4502Z" fill="white"/>
</g>
<defs>
<clipPath id="clip0_1_1097">
<rect width="30" height="30" fill="white" transform="translate(11 11)"/>
</clipPath>
</defs>
</svg>
