<svg width="30" height="30" viewBox="0 0 30 30" fill="none" xmlns="http://www.w3.org/2000/svg">
<g clip-path="url(#clip0_36_451)">
<path d="M17.8125 0H3.4375C1.5375 0 0 1.5375 0 3.4375V22.8125C0 24.7125 1.5375 26.25 3.4375 26.25H12.6625L12.9375 24.7125C13.0625 24.0125 13.3875 23.3875 13.8875 22.875L21.25 15.525V3.4375C21.25 1.5375 19.7125 0 17.8125 0V0ZM5 5H10C10.6875 5 11.25 5.5625 11.25 6.25C11.25 6.9375 10.6875 7.5 10 7.5H5C4.3125 7.5 3.75 6.9375 3.75 6.25C3.75 5.5625 4.3125 5 5 5ZM11.25 17.5H5C4.3125 17.5 3.75 16.9375 3.75 16.25C3.75 15.5625 4.3125 15 5 15H11.25C11.9375 15 12.5 15.5625 12.5 16.25C12.5 16.9375 11.9375 17.5 11.25 17.5ZM16.25 12.5H5C4.3125 12.5 3.75 11.9375 3.75 11.25C3.75 10.5625 4.3125 10 5 10H16.25C16.9375 10 17.5 10.5625 17.5 11.25C17.5 11.9375 16.9375 12.5 16.25 12.5Z" fill="#F3AA3C"/>
<path d="M15.6601 29.9999C15.4138 29.9999 15.1738 29.9024 14.9976 29.7249C14.7813 29.5086 14.6838 29.2011 14.7376 28.8986L15.4001 25.1424C15.4326 24.9536 15.5251 24.7787 15.6601 24.6424L24.9414 15.3624C26.0814 14.2199 27.2014 14.5287 27.8139 15.1412L29.3601 16.6874C30.2139 17.5399 30.2139 18.9274 29.3601 19.7812L20.0789 29.0624C19.9439 29.1986 19.7689 29.2899 19.5789 29.3224L15.8226 29.9849C15.7688 29.9949 15.7138 29.9999 15.6601 29.9999ZM19.4164 28.3999H19.4289H19.4164Z" fill="#F3AA3C"/>
</g>
<defs>
<clipPath id="clip0_36_451">
<rect width="30" height="30" fill="white"/>
</clipPath>
</defs>
</svg>
