<svg width="52" height="52" viewBox="0 0 52 52" fill="none" xmlns="http://www.w3.org/2000/svg">
<rect width="52" height="52" rx="4" fill="#F3AA3C"/>
<path d="M26.3379 21.0342L24.6249 18.7502C24.5071 18.5927 24.3216 18.5 24.1251 18.5H22.2501V17.25H22.8751C23.2205 17.25 23.5001 16.9705 23.5001 16.625V14.125C23.5001 13.7795 23.2205 13.5 22.8751 13.5H20.375C20.0295 13.5 19.75 13.7795 19.75 14.125V16.625C19.75 16.9705 20.0295 17.25 20.375 17.25H21V18.5H19.125C18.9285 18.5 18.7429 18.5927 18.6252 18.7502L16.9122 21.0342C15.6941 21.201 14.75 22.2369 14.75 23.5V38.5C14.75 39.8788 15.8712 41 17.25 41H26C27.3788 41 28.5 39.8788 28.5 38.5V23.5C28.5 22.2369 27.5558 21.201 26.3379 21.0342Z" fill="white"/>
<path d="M36.6281 12.25C36.9713 12.25 37.25 11.9704 37.25 11.625C37.25 11.2796 36.9713 11 36.6281 11H36.6153C36.2721 11 36 11.2796 36 11.625C36.0001 11.9705 36.2843 12.25 36.6281 12.25Z" fill="white"/>
<path d="M36.6281 18.5H36.6153C36.2721 18.5 36 18.7796 36 19.125C36 19.4705 36.2842 19.75 36.6281 19.75C36.9713 19.75 37.25 19.4705 37.25 19.125C37.25 18.7796 36.9713 18.5 36.6281 18.5Z" fill="white"/>
<path d="M35.3781 14.75H35.3653C35.0221 14.75 34.75 15.0296 34.75 15.375C34.75 15.7205 35.0342 16 35.3781 16C35.7212 16 36 15.7205 36 15.375C36 15.0296 35.7212 14.75 35.3781 14.75Z" fill="white"/>
<path d="M32.8781 12.25H32.8653C32.5221 12.25 32.25 12.5295 32.25 12.875C32.25 13.2205 32.5342 13.5 32.8781 13.5C33.2213 13.5 33.5 13.2205 33.5 12.875C33.5 12.5295 33.2213 12.25 32.8781 12.25Z" fill="white"/>
<path d="M32.8781 14.75H32.8653C32.5221 14.75 32.25 15.0296 32.25 15.375C32.25 15.7205 32.5342 16 32.8781 16C33.2213 16 33.5 15.7205 33.5 15.375C33.5 15.0296 33.2213 14.75 32.8781 14.75Z" fill="white"/>
<path d="M32.8781 17.25H32.8653C32.5221 17.25 32.25 17.5296 32.25 17.875C32.25 18.2205 32.5342 18.5001 32.8781 18.5001C33.2213 18.5001 33.5 18.2205 33.5 17.875C33.5 17.5296 33.2213 17.25 32.8781 17.25Z" fill="white"/>
<path d="M30.3781 16H30.3653C30.0221 16 29.75 16.2795 29.75 16.625C29.75 16.9705 30.0342 17.25 30.3781 17.25C30.7212 17.25 31 16.9705 31 16.625C31 16.2795 30.7212 16 30.3781 16Z" fill="white"/>
<path d="M30.3781 13.5H30.3653C30.0221 13.5 29.75 13.7796 29.75 14.1251C29.75 14.4705 30.0342 14.75 30.3781 14.75C30.7212 14.75 31 14.4705 31 14.125C31 13.7796 30.7212 13.5 30.3781 13.5Z" fill="white"/>
<path d="M27.8781 14.75H27.8653C27.5221 14.75 27.25 15.0296 27.25 15.375C27.25 15.7205 27.5342 16 27.8781 16C28.2212 16 28.5 15.7205 28.5 15.375C28.5 15.0296 28.2212 14.75 27.8781 14.75Z" fill="white"/>
</svg>
