<svg width="52" height="52" viewBox="0 0 52 52" fill="none" xmlns="http://www.w3.org/2000/svg">
<rect width="52" height="52" rx="4" fill="#F3AA3C"/>
<g clip-path="url(#clip0_1_1127)">
<g clip-path="url(#clip1_1_1127)">
<path d="M40.3788 24.6201C40.1825 23.1063 38.6063 22.0701 37.0975 22.6351C36.5325 22.8488 35.8525 22.5313 35.5975 21.9613C35.2925 21.2813 34.9188 20.6301 34.4838 20.0251C34.0963 19.4863 34.17 18.7813 34.6513 18.3838C35.2263 17.9113 35.5475 17.2126 35.5325 16.4688C35.5175 15.7125 35.1613 15.0163 34.555 14.5563C33.5575 13.8013 32.47 13.1725 31.3213 12.6888C31.0113 12.5588 30.6863 12.4926 30.355 12.4926C29.1575 12.4926 28.1475 13.3438 27.9525 14.5163C27.85 15.1326 27.2663 15.5513 26.6088 15.4801C25.8787 15.4026 25.1188 15.4026 24.39 15.4801C23.735 15.5513 23.1488 15.1326 23.0463 14.5163C22.8513 13.3438 21.8413 12.4926 20.6437 12.4926C20.3125 12.4926 19.9875 12.5588 19.6788 12.6888C18.5288 13.1725 17.4413 13.8 16.4438 14.5563C15.8388 15.0163 15.4825 15.7125 15.4675 16.4676C15.4525 17.2126 15.7738 17.9101 16.3488 18.3851C16.8313 18.7813 16.9025 19.4863 16.5163 20.0238C16.0813 20.6288 15.7063 21.2801 15.4013 21.96C15.1463 22.53 14.5163 22.865 13.8875 22.6288C13.6126 22.5263 13.3263 22.4738 13.0363 22.4738C11.8163 22.4738 10.7788 23.3963 10.6201 24.62C10.5412 25.2401 10.5 25.8738 10.5 26.5001C10.5 27.1263 10.5412 27.7601 10.6212 28.38C10.8162 29.8925 12.3912 30.9288 13.9025 30.365C14.4662 30.1513 15.1475 30.4688 15.4025 31.0388C15.7075 31.7188 16.0812 32.37 16.5162 32.975C16.9037 33.5138 16.83 34.2188 16.3487 34.6163C15.7737 35.0888 15.4525 35.7875 15.4675 36.5313C15.4825 37.2876 15.8387 37.9838 16.445 38.4438C17.4425 39.1988 18.53 39.8276 19.6787 40.3113C19.9887 40.4413 20.3137 40.5075 20.645 40.5075C21.8425 40.5075 22.8525 39.6563 23.0475 38.4838C23.15 37.8675 23.735 37.455 24.3912 37.52C25.12 37.5975 25.88 37.5975 26.61 37.52C27.2675 37.4537 27.8513 37.8675 27.9537 38.4838C28.1487 39.6563 29.1587 40.5062 30.3563 40.5075C30.6875 40.5075 31.0125 40.4413 31.3212 40.3113C32.47 39.8276 33.5588 39.2001 34.555 38.4438C35.1599 37.9838 35.5175 37.2876 35.5325 36.5325C35.5475 35.7875 35.2262 35.09 34.6512 34.6151C34.1687 34.2188 34.0975 33.5138 34.4837 32.9763C34.9187 32.3713 35.2937 31.7201 35.5987 31.0401C35.8537 30.4688 36.4849 30.1351 37.1125 30.3713C37.3874 30.4751 37.6737 30.5276 37.9637 30.5276C39.1837 30.5276 40.2212 29.6051 40.3799 28.3814C40.4587 27.7538 40.5 27.1226 40.5 26.5001C40.5 25.8776 40.4587 25.2463 40.3788 24.6201ZM25.5 31.5C22.7425 31.5 20.5 29.2575 20.5 26.5001C20.5 23.7426 22.7425 21.5001 25.5 21.5001C28.2575 21.5001 30.5 23.7426 30.5 26.5001C30.5 29.2575 28.2575 31.5 25.5 31.5Z" fill="white"/>
</g>
</g>
<defs>
<clipPath id="clip0_1_1127">
<rect width="30" height="30" fill="white" transform="translate(11 11)"/>
</clipPath>
<clipPath id="clip1_1_1127">
<rect width="30" height="30" fill="white" transform="translate(10.5 11.5)"/>
</clipPath>
</defs>
</svg>
