<svg width="52" height="52" viewBox="0 0 52 52" fill="none" xmlns="http://www.w3.org/2000/svg">
<rect width="52" height="52" rx="4" fill="#F3AA3C"/>
<g clip-path="url(#clip0_1_1088)">
<path d="M26 27.086C26.5998 27.086 27.0861 26.5997 27.0861 25.9999C27.0861 25.4 26.5998 24.9137 26 24.9137C25.4001 24.9137 24.9138 25.4 24.9138 25.9999C24.9138 26.5997 25.4001 27.086 26 27.086Z" fill="white"/>
<path d="M40.6926 22.0631L40.3851 20.9157L38.3183 21.4695C38.3578 21.3079 38.3925 21.1464 38.4222 20.9858C38.8377 18.7354 38.2614 16.7501 36.7557 15.2442L35.9158 14.4043L34.4027 15.9174C34.3561 15.7575 34.3054 15.6004 34.2508 15.4465C33.4855 13.2898 31.9937 11.8586 29.9369 11.3074L28.7895 11L28.2356 13.0669C28.1154 12.9517 27.9929 12.841 27.8687 12.735C26.1275 11.25 24.12 10.7563 22.0631 11.3074L20.9157 11.6149L21.4691 13.6803C20.457 13.4328 19.2205 13.3201 17.9534 13.6596C16.9341 13.9328 16.0226 14.4659 15.2442 15.2443L14.4044 16.0842L15.9174 17.5972C14.1851 18.101 12.0518 19.2852 11.3074 22.0631L11 23.2105L13.0669 23.7644C12.9517 23.8846 12.841 24.007 12.735 24.1313C11.25 25.8725 10.7563 27.88 11.3074 29.9369L11.6149 31.0843L13.6817 30.5305C13.6422 30.6921 13.6075 30.8536 13.5778 31.0142C13.1623 33.2646 13.7386 35.25 15.2443 36.7558L16.0842 37.5957L17.5973 36.0827C17.6439 36.2426 17.6946 36.3997 17.7492 36.5536C18.5145 38.7102 20.0063 40.1415 22.0631 40.6926L23.2105 41.0001L23.7644 38.9332C23.8846 39.0484 24.0071 39.1591 24.1313 39.2651C25.8725 40.7501 27.88 41.2437 29.9369 40.6926L31.0843 40.3852L30.5309 38.3198C31.543 38.5673 32.7794 38.6799 34.0465 38.3404C35.0659 38.0673 35.9773 37.5341 36.7558 36.7558L37.5957 35.9158L36.0827 34.4028C37.8149 33.8988 39.9484 32.7146 40.6926 29.937L41.0001 28.7896L38.9332 28.2358C39.0484 28.1155 39.1591 27.993 39.2651 27.8688C40.7501 26.1275 41.2437 24.12 40.6926 22.0631ZM27.8958 33.0754C23.9944 34.1208 19.97 31.7972 18.9246 27.8959C17.8792 23.9945 20.2028 19.97 24.1041 18.9246C28.0055 17.8792 32.03 20.2028 33.0754 24.1042C34.1208 28.0055 31.7972 32.03 27.8958 33.0754Z" fill="white"/>
<path d="M24.5654 20.6465C21.6134 21.4375 19.8553 24.4827 20.6463 27.4347C21.4372 30.3866 24.4824 32.1447 27.4344 31.3538C30.3864 30.5628 32.1445 27.5176 31.3535 24.5656C30.5626 21.6137 27.5174 19.8556 24.5654 20.6465ZM26.7424 28.7711C25.2145 29.1805 23.6384 28.2705 23.229 26.7426C22.8196 25.2147 23.7295 23.6386 25.2574 23.2292C26.7853 22.8198 28.3614 23.7297 28.7708 25.2577C29.1803 26.7856 28.2703 28.3617 26.7424 28.7711Z" fill="white"/>
</g>
<defs>
<clipPath id="clip0_1_1088">
<rect width="30" height="30" fill="white" transform="translate(11 11)"/>
</clipPath>
</defs>
</svg>
