<svg width="52" height="52" viewBox="0 0 52 52" fill="none" xmlns="http://www.w3.org/2000/svg">
<rect width="52" height="52" rx="4" fill="#F3AA3C"/>
<g clip-path="url(#clip0_1_1119)">
<path d="M32.733 27.5578C32.4791 28.0339 32.0114 28.327 31.5022 28.327H20.4945C19.9876 28.327 19.5184 28.0339 19.2645 27.5578C19.0107 27.0832 19.0107 26.4955 19.2645 26.0193L22.0168 20.8562C22.2699 20.3801 22.7384 20.087 23.2468 20.087H28.7491C29.2561 20.087 29.7253 20.3801 29.9791 20.8562L32.7314 26.0193C32.9868 26.497 32.9868 27.0832 32.733 27.5578ZM24.6561 35.4424L21.9045 30.2801C21.6507 29.8039 21.1822 29.5108 20.6745 29.5108H15.1714C14.6645 29.5108 14.1953 29.8039 13.9422 30.2801L11.1899 35.4424C10.9361 35.9185 10.9361 36.5062 11.1899 36.9809C11.4437 37.457 11.9114 37.7501 12.4199 37.7501H23.4261C23.933 37.7501 24.403 37.457 24.6561 36.9809C24.9099 36.5062 24.9099 35.9201 24.6561 35.4424ZM40.8091 35.4424L38.0568 30.2801C37.803 29.8039 37.3353 29.5108 36.8276 29.5108H31.3245C30.8176 29.5108 30.3476 29.8039 30.0945 30.2801L27.343 35.4424C27.0891 35.9185 27.0891 36.5062 27.343 36.9809C27.5961 37.457 28.0645 37.7501 28.5722 37.7501H39.5791C40.0868 37.7501 40.5568 37.457 40.8099 36.9809C41.0637 36.5062 41.0637 35.9201 40.8091 35.4424ZM35.7053 20.5909L35.2137 22.8939L32.9091 23.3847L35.2137 23.8747L35.7053 26.1778L36.1961 23.8747L38.5007 23.3847L36.1961 22.8939L35.7053 20.5909ZM17.8368 17.9039L17.3461 20.2062L15.0414 20.697L17.3461 21.187L17.8368 23.4901L18.3276 21.187L20.6322 20.697L18.3276 20.2062L17.8368 17.9039ZM29.5684 14.2501L29.0768 16.5524L26.7722 17.0432L29.0768 17.5339L29.5684 19.837L30.0591 17.5339L32.3637 17.0439L30.0591 16.5532L29.5684 14.2501Z" fill="white"/>
</g>
<defs>
<clipPath id="clip0_1_1119">
<rect width="30" height="30" fill="white" transform="translate(11 11)"/>
</clipPath>
</defs>
</svg>
