<svg width="52" height="52" viewBox="0 0 52 52" fill="none" xmlns="http://www.w3.org/2000/svg">
<rect width="52" height="52" rx="4" fill="#F3AA3C"/>
<path d="M40.9999 24.1889H37.2983V34.8481H40.9999V24.1889Z" fill="white"/>
<path d="M14.7015 24.1889H11V34.8481H14.7015V24.1889Z" fill="white"/>
<path d="M30.0312 23.1387V20.2081H21.9685V23.1387C21.0734 23.7041 20.2946 24.4572 19.6969 25.3618H16.4595V33.6755H19.6969C21.088 35.7807 23.4575 37.0685 25.9998 37.0685C28.5422 37.0685 30.9117 35.7807 32.3027 33.6755H35.5402V25.3618H32.3028C31.7051 24.4572 30.9263 23.704 30.0312 23.1387Z" fill="white"/>
<path d="M19.3291 14.9314V16.6893H23.3618V18.45H28.6384V16.6893H32.671V14.9314H19.3291Z" fill="white"/>
</svg>
